<svg width="251" height="183" xmlns="http://www.w3.org/2000/svg" xmlns:xlink="http://www.w3.org/1999/xlink" xml:space="preserve" overflow="hidden"><defs><clipPath id="clip0"><rect x="821" y="428" width="251" height="183"></clipPath></defs><g clip-path="url(#clip0)" transform="translate(-821 -428)"><path d="M250.466 46.659 250.466 135.841C250.466 164.716 231.9 182.5 203.921 182.5L46.2736 182.5C18.8406 182.5 0 164.716 0 135.841L0 46.659C0 17.788 18.8406 0 46.2736 0L204.196 0C231.629 0 250.466 17.788 250.466 46.659ZM169.565 109.297C169.565 131.463 149.615 150.279 125.79 150.279 101.411 150.279 82.0101 131.463 82.0101 109.297 82.0101 100.786 84.5044 93.054 89.2109 86.3527L119.138 36.8641C123.292 29.6454 128.005 29.6454 132.159 36.8641L162.083 86.3527C166.793 93.054 169.565 100.786 169.565 109.297Z" fill="#0F172A" fill-rule="evenodd" transform="matrix(1.00079 0 0 1 820.997 427.998)"></g></svg>